<svg xmlns="http://www.w3.org/2000/svg" xmlns:xlink="http://www.w3.org/1999/xlink" width="60" height="60" viewBox="0 0 60 60">
  <defs>
    <clipPath id="clip-logoPhotoshop">
      <rect width="60" height="60"/>
    </clipPath>
  </defs>
  <g id="logoPhotoshop" clip-path="url(#clip-logoPhotoshop)">
    <g id="Rectangle_1" data-name="Rectangle 1" fill="none" stroke="#fff" stroke-width="3">
      <rect width="60" height="60" rx="10" stroke="none"/>
      <rect x="1.5" y="1.5" width="57" height="57" rx="8.5" fill="none"/>
    </g>
    <path id="Tracé_3" data-name="Tracé 3" d="M2.964,27.727c0,.2.078.273.273.273H7.371c.195,0,.273-.078.273-.312V19.849h2.418c5.733,0,10.842-2.691,10.842-8.892-.039-4.524-2.691-8.463-10.335-8.463-2.964,0-5.889.039-7.371.078-.195,0-.234.078-.234.273Zm4.68-21.45c.312-.039,1.4-.078,2.925-.078,3.666,0,5.655,1.716,5.655,4.836,0,3.9-2.964,5.109-6.045,5.109a22.779,22.779,0,0,1-2.535-.078ZM35.88,13.726c.195.117.351,0,.351-.234v-3.2A.535.535,0,0,0,36,9.787a10.364,10.364,0,0,0-5.148-1.131c-4.6,0-7.137,2.5-7.137,5.655,0,2.847,1.4,4.368,5.421,6.006,2.808,1.131,3.51,1.716,3.51,2.73,0,.858-.624,1.755-2.418,1.755A12.313,12.313,0,0,1,23.907,22.7c-.117-.078-.273,0-.273.195v3.588a.392.392,0,0,0,.234.39,12.1,12.1,0,0,0,6.045,1.521c4.29,0,7.293-2.106,7.293-6.006,0-2.808-1.716-4.251-5.733-5.889-2.925-1.17-3.432-1.677-3.432-2.613,0-.741.507-1.638,2.418-1.638A11.622,11.622,0,0,1,35.88,13.726Z" transform="translate(11 15)" fill="#fff"/>
  </g>
</svg>
