<svg xmlns="http://www.w3.org/2000/svg" xmlns:xlink="http://www.w3.org/1999/xlink" width="60" height="60" viewBox="0 0 60 60">
  <defs>
    <clipPath id="clip-logoXd">
      <rect width="60" height="60"/>
    </clipPath>
  </defs>
  <g id="logoXd" clip-path="url(#clip-logoXd)">
    <g id="Rectangle_1" data-name="Rectangle 1" fill="none" stroke="#fff" stroke-width="3">
      <rect width="60" height="60" rx="10" stroke="none"/>
      <rect x="1.5" y="1.5" width="57" height="57" rx="8.5" fill="none"/>
    </g>
    <path id="Tracé_1" data-name="Tracé 1" d="M22.581,3c.117-.234.039-.429-.2-.429H18.1a.464.464,0,0,0-.507.273l-5.538,9.633h-.039L6.4,2.845c-.117-.273-.273-.273-.507-.273H1.131c-.156,0-.273.117-.156.312L8.658,15.208l-8,12.4c-.117.156-.117.39.156.39H5.382a.535.535,0,0,0,.507-.312l5.733-9.75h.039l5.928,9.75a.545.545,0,0,0,.585.312h4.8c.195-.039.312-.195.156-.39L15.015,14.935ZM34.632,28.39a18.1,18.1,0,0,0,7.8-1.911c.195-.117.234-.195.195-.39-.039-.624-.117-1.677-.117-2.5V.583c0-.156-.039-.234-.195-.234H38.064c-.156,0-.234.078-.234.273V8.929a7.535,7.535,0,0,0-2.223-.273c-6.63,0-10.8,4.407-10.8,10.062C24.8,25.231,28.9,28.39,34.632,28.39Zm3.2-4.134a8.843,8.843,0,0,1-2.652.39c-2.964,0-5.538-1.755-5.538-6.162,0-3.978,2.379-6.2,5.889-6.2a6.49,6.49,0,0,1,2.3.351Z" transform="translate(7 15)" fill="#fff"/>
  </g>
</svg>
