<svg xmlns="http://www.w3.org/2000/svg" xmlns:xlink="http://www.w3.org/1999/xlink" width="60" height="60" viewBox="0 0 60 60">
  <defs>
    <clipPath id="clip-logoAfterEffects">
      <rect width="60" height="60"/>
    </clipPath>
  </defs>
  <g id="logoAfterEffects" clip-path="url(#clip-logoAfterEffects)">
    <g id="Rectangle_1" data-name="Rectangle 1" fill="none" stroke="#fff" stroke-width="3">
      <rect width="60" height="60" rx="10" stroke="none"/>
      <rect x="1.5" y="1.5" width="57" height="57" rx="8.5" fill="none"/>
    </g>
    <path id="Tracé_2" data-name="Tracé 2" d="M17.082,20.9l2.5,6.864a.341.341,0,0,0,.351.234H24.3q.351,0,.234-.351c-2.964-8.073-6.123-16.887-9.009-24.882-.078-.156-.117-.195-.312-.195H9.828a.225.225,0,0,0-.234.234,7.83,7.83,0,0,1-.312,2.145C6.786,11.7,3.237,21.643,1.131,27.61c-.078.273,0,.39.273.39H5.382c.234,0,.351-.078.39-.312L8.151,20.9ZM9.165,17.08c1.17-3.627,2.769-8.034,3.354-10.608h.039c.78,2.73,2.691,8,3.471,10.608Zm30.459,2.379a17.593,17.593,0,0,0,4.1-.234c.156-.117.351-.9.351-2.574,0-3.627-2.3-8-8.034-8-5.85,0-9.165,4.407-9.165,9.984,0,4.914,2.574,9.75,9.672,9.75a13.045,13.045,0,0,0,5.85-1.092c.156-.078.234-.156.234-.429v-3.12c0-.195-.117-.234-.234-.195a12.193,12.193,0,0,1-4.875.975c-3.939,0-5.772-2.106-5.85-5.07Zm-7.956-3c.312-2.5,1.638-4.446,4.173-4.446a3.654,3.654,0,0,1,3.783,3.7v.429c-.039.156-.273.312-1.716.312Z" transform="translate(7 15)" fill="#fff"/>
  </g>
</svg>
